HIERARCHY
ROOT hip
{
	OFFSET 0.000000 0.000000 0.000000
	CHANNELS 6 Xposition Yposition Zposition Xrotation Zrotation Yrotation 
	JOINT abdomen
	{
		OFFSET 0.000000 3.422050 0.000000
		CHANNELS 3 Xrotation Zrotation Yrotation 
		JOINT chest
		{
			OFFSET 0.000000 8.486693 -0.684411
			CHANNELS 3 Xrotation Zrotation Yrotation 
			JOINT neck
			{
				OFFSET 0.000000 10.266162 -0.273764
				CHANNELS 3 Xrotation Zrotation Yrotation 
				JOINT head
				{
					OFFSET 0.000000 3.148285 0.000000
					CHANNELS 3 Xrotation Zrotation Yrotation 
					End Site
					{
						OFFSET 0.000000 3.148289 0.000000
					}
				}
			}
			JOINT lCollar
			{
				OFFSET 3.422053 6.707223 -0.821293
				CHANNELS 3 Yrotation Zrotation Xrotation 
				JOINT lShldr
				{
					OFFSET 3.285171 0.000000 0.000000
					CHANNELS 3 Zrotation Yrotation Xrotation 
					JOINT lForeArm
					{
						OFFSET 10.129278 0.000000 0.000000
						CHANNELS 3 Yrotation Zrotation Xrotation 
						JOINT lHand
						{
							OFFSET 8.486692 0.000000 0.000000
							CHANNELS 3 Zrotation Yrotation Xrotation 
							End Site
							{
								OFFSET 4.106464 0.000000 0.000000
							}
						}
					}
				}
			}
			JOINT rCollar
			{
				OFFSET -3.558935 6.707223 -0.821293
				CHANNELS 3 Yrotation Zrotation Xrotation 
				JOINT rShldr
				{
					OFFSET -3.148289 0.000000 0.000000
					CHANNELS 3 Zrotation Yrotation Xrotation 
					JOINT rForeArm
					{
						OFFSET -10.266159 0.000000 0.000000
						CHANNELS 3 Yrotation Zrotation Xrotation 
						JOINT rHand
						{
							OFFSET -8.349810 0.000000 0.000000
							CHANNELS 3 Zrotation Yrotation Xrotation 
							End Site
							{
								OFFSET -4.106464 0.000000 0.000000
							}
						}
					}
				}
			}
		}
	}
	JOINT lThigh
	{
		OFFSET 5.338403 -1.642589 1.368821
		CHANNELS 3 Xrotation Zrotation Yrotation 
		JOINT lShin
		{
			OFFSET -2.053232 -20.121670 0.000000
			CHANNELS 3 Xrotation Zrotation Yrotation 
			JOINT lFoot
			{
				OFFSET 0.000000 -19.300380 -1.231939
				CHANNELS 3 Xrotation Yrotation Zrotation 
				End Site
				{
					OFFSET 0.000000 -2.463878 4.653993
				}
			}
		}
	}
	JOINT rThigh
	{
		OFFSET -5.338403 -1.642589 1.368821
		CHANNELS 3 Xrotation Zrotation Yrotation 
		JOINT rShin
		{
			OFFSET 2.053232 -20.121670 0.000000
			CHANNELS 3 Xrotation Zrotation Yrotation 
			JOINT rFoot
			{
				OFFSET 0.000000 -19.300380 -1.231939
				CHANNELS 3 Xrotation Yrotation Zrotation 
				End Site
				{
					OFFSET 0.000000 -2.463878 4.653993
				}
			}
		}
	}
}
MOTION
Frames: 19
Frame Time: 0.022176
20.110023 6.909916 14.593960 121.002296 -0.002582 179.995438 18.161165 0.076982 -0.138208 21.758694 3.092835 -1.515759 13.993475 0.000000 0.000000 0.691529 0.000000 0.000000 -7.530666 -47.796535 -9.006529 9.655213 7.280666 55.756138 -7.561153 -1.048625 36.205650 3.615978 -4.951441 7.110337 -19.744455 46.250881 7.454669 12.069612 67.992004 -31.760902 -54.888561 56.856270 94.236801 -19.197765 8.357888 -27.477938 -65.737869 34.651093 32.888794 120.790009 37.141994 12.963379 -10.437662 3.752506 20.628639 -54.388500 -27.794382 -38.168800 112.102524 -41.823166 10.252730 -10.000841 -28.367773 -16.667412 
20.110023 6.909916 14.628803 121.002296 -0.002582 179.995438 18.161165 0.076982 -0.138208 21.508585 3.092859 -1.515798 13.993475 0.000000 0.000000 0.662216 0.000000 0.000000 -7.030094 -47.629692 -8.649230 9.234842 6.946445 55.706482 -7.329435 -1.031784 36.211025 3.478850 -4.955882 7.325435 -19.775372 46.280109 7.666069 12.354040 67.753136 -31.448746 -54.310036 56.526775 93.761208 -18.971281 8.323393 -27.492018 -65.557465 34.611389 32.972916 120.545151 37.077923 12.925321 -10.437662 3.752506 20.628639 -54.388504 -27.794382 -38.168804 112.102524 -41.823166 10.252730 -10.000841 -28.367773 -16.667412 
20.110023 6.909916 14.663646 121.002296 -0.002582 179.995438 18.161165 0.076982 -0.138208 21.258484 3.092882 -1.515837 13.993475 0.000000 0.000000 0.632903 0.000000 0.000000 -6.532693 -47.460770 -8.295260 8.815092 6.611902 55.659317 -7.097722 -1.014921 36.216324 3.341708 -4.959810 7.540538 -19.806477 46.309273 7.877610 12.632188 67.513657 -31.142818 -53.741497 56.194714 93.295769 -18.744814 8.288955 -27.506231 -65.377213 34.571461 33.056828 120.300560 37.013718 12.887644 -10.437661 3.752505 20.628639 -54.388500 -27.794382 -38.168800 112.102524 -41.823166 10.252730 -10.000841 -28.367773 -16.667412 
20.110023 6.909916 14.698489 121.002296 -0.002582 179.995438 18.161165 0.076982 -0.138208 21.008390 3.092906 -1.515877 13.993475 0.000000 0.000000 0.603590 0.000000 0.000000 -6.038473 -47.289803 -7.944627 8.395953 6.277070 55.614693 -6.866016 -0.998037 36.221546 3.204555 -4.963225 7.755648 -19.837740 46.338337 8.089276 12.904234 67.273636 -30.842979 -53.182716 55.860168 92.840256 -18.518368 8.254574 -27.520586 -65.197121 34.531315 33.140556 120.056244 36.949387 12.850341 -10.437663 3.752506 20.628641 -54.388500 -27.794382 -38.168800 112.102524 -41.823166 10.252730 -10.000841 -28.367773 -16.667412 
20.110023 6.909916 14.733333 121.002296 -0.002582 179.995438 18.161165 0.076982 -0.138208 20.758305 3.092929 -1.515916 13.993475 0.000000 0.000000 0.574278 0.000000 0.000000 -5.547441 -47.116806 -7.597338 7.977407 5.941979 55.572536 -6.634323 -0.981133 36.226715 3.067394 -4.966126 7.970756 -19.869184 46.367336 8.301077 13.170359 67.033142 -30.549076 -52.633488 55.523209 92.394478 -18.291935 8.220249 -27.535070 -65.017197 34.490963 33.224091 119.812202 36.884941 12.813420 -10.437662 3.752506 20.628639 -54.388500 -27.794382 -38.168800 112.102524 -41.823166 10.252730 -10.000841 -28.367773 -16.667412 
20.110023 6.909916 14.768176 121.002296 -0.002582 179.995438 18.161165 0.076982 -0.138208 20.508232 3.092952 -1.515956 13.993475 0.000000 0.000000 0.544967 0.000000 0.000000 -5.059604 -46.941822 -7.253401 7.559451 5.606666 55.532883 -6.402642 -0.964209 36.231819 2.930229 -4.968514 8.185862 -19.900797 46.396252 8.513007 13.430712 66.792084 -30.260880 -52.093643 55.183945 91.958244 -18.065529 8.185986 -27.549702 -64.837425 34.450394 33.307426 119.568420 36.820366 12.776868 -10.437662 3.752506 20.628639 -54.388500 -27.794382 -38.168800 112.102524 -41.823166 10.252731 -10.000841 -28.367773 -16.667412 
20.110023 6.909916 14.803020 121.002296 -0.002582 179.995438 18.161165 0.076982 -0.138208 20.258175 3.092975 -1.515995 13.993475 0.000000 0.000000 0.515655 0.000000 0.000000 -4.574965 -46.764866 -6.912817 7.142067 5.271160 55.495720 -6.170973 -0.947266 36.236835 2.793063 -4.970389 8.400962 -19.932581 46.425091 8.725065 13.685483 66.550575 -29.978275 -51.562950 54.842426 91.531349 -17.839142 8.151779 -27.564461 -64.657822 34.409603 33.390564 119.324898 36.755665 12.740696 -10.437662 3.752506 20.628639 -54.388500 -27.794380 -38.168800 112.102524 -41.823162 10.252728 -10.000841 -28.367773 -16.667412 
20.110023 6.909916 14.837862 121.002296 -0.002582 179.995438 18.161165 0.076982 -0.138208 20.008131 3.092998 -1.516035 13.993475 0.000000 0.000000 0.486344 0.000000 0.000000 -4.093534 -46.585987 -6.575595 6.725248 4.935496 55.461037 -5.939322 -0.930303 36.241795 2.655900 -4.971752 8.616054 -19.964535 46.453846 8.937251 13.934805 66.308556 -29.701065 -51.041245 54.498772 91.113602 -17.612774 8.117632 -27.579351 -64.478394 34.368610 33.473511 119.081657 36.690865 12.704896 -10.437661 3.752505 20.628639 -54.388500 -27.794382 -38.168800 112.102524 -41.823166 10.252730 -10.000841 -28.367773 -16.667412 
20.110023 6.909916 14.872705 121.002296 -0.002582 179.995438 18.161165 0.076982 -0.138208 19.758110 3.093020 -1.516075 13.993475 0.000000 0.000000 0.457033 0.000000 0.000000 -3.615309 -46.405224 -6.241737 6.308982 4.599707 55.428841 -5.707689 -0.913321 36.246693 2.518742 -4.972601 8.831133 -19.996656 46.482510 9.149560 14.178847 66.066124 -29.429152 -50.528290 54.153027 90.704788 -17.386435 8.083548 -27.594379 -64.299126 34.327396 33.556252 118.838684 36.625935 12.669477 -10.437663 3.752506 20.628641 -54.388500 -27.794380 -38.168800 112.102524 -41.823166 10.252730 -10.000841 -28.367773 -16.667412 
20.110023 6.909916 14.907549 121.002296 -0.002582 179.995438 18.161165 0.076982 -0.138208 19.508110 3.093043 -1.516115 13.993475 0.000000 0.000000 0.427722 0.000000 0.000000 -3.140291 -46.222576 -5.911241 5.893256 4.263824 55.399105 -5.476075 -0.896321 36.251511 2.381593 -4.972937 9.046194 -20.028952 46.511097 9.361997 14.417734 65.823227 -29.162336 -50.023952 53.805286 90.304771 -17.160124 8.049522 -27.609541 -64.120018 34.285976 33.638802 118.595978 36.560886 12.634424 -10.437662 3.752506 20.628639 -54.388500 -27.794382 -38.168800 112.102524 -41.823166 10.252730 -10.000841 -28.367773 -16.667412 
20.110023 6.909916 14.942392 121.002296 -0.002582 179.995438 18.161165 0.076982 -0.138208 19.258131 3.093065 -1.516155 13.993475 0.000000 0.000000 0.398412 0.000000 0.000000 -2.668480 -46.038086 -5.584106 5.478059 3.927882 55.371841 -5.244483 -0.879304 36.256264 2.244457 -4.972761 9.261236 -20.061405 46.539577 9.574549 14.651642 65.579910 -28.900488 -49.527996 53.455612 89.913300 -16.933836 8.015563 -27.624836 -63.941074 34.244339 33.721142 118.353531 36.495728 12.599753 -10.437662 3.752506 20.628639 -54.388500 -27.794382 -38.168800 112.102524 -41.823166 10.252731 -10.000841 -28.367773 -16.667412 
20.110023 6.909916 14.977236 121.002296 -0.002582 179.995438 18.161165 0.076982 -0.138208 19.008179 3.093087 -1.516195 13.993475 0.000000 0.000000 0.369102 0.000000 0.000000 -2.199876 -45.851799 -5.260334 5.063380 3.591913 55.347038 -5.012913 -0.862268 36.260941 2.107335 -4.972073 9.476258 -20.094044 46.568012 9.787234 14.880681 65.336189 -28.643480 -49.040241 53.104073 89.530205 -16.707582 7.981663 -27.640259 -63.762302 34.202488 33.803272 118.111389 36.430454 12.565460 -10.437662 3.752506 20.628639 -54.388500 -27.794382 -38.168800 112.102524 -41.823162 10.252728 -10.000841 -28.367773 -16.667412 
20.110023 6.909916 15.012078 121.002296 -0.002582 179.995438 18.161165 0.076982 -0.138208 18.758259 3.093109 -1.516235 13.993475 0.000000 0.000000 0.339793 0.000000 0.000000 -1.734474 -45.663715 -4.939917 4.649209 3.255948 55.324696 -4.781369 -0.845215 36.265553 1.970233 -4.970870 9.691252 -20.126833 46.596321 10.000029 15.104993 65.092102 -28.391201 -48.560528 52.750751 89.155327 -16.481358 7.947828 -27.655815 -63.583702 34.160435 33.885216 117.869507 36.365074 12.531534 -10.437661 3.752505 20.628639 -54.388500 -27.794382 -38.168800 112.102524 -41.823166 10.252730 -10.000841 -28.367773 -16.667412 
20.110023 6.909916 15.046922 121.002296 -0.002582 179.995438 18.161165 0.076982 -0.138208 18.508366 3.093130 -1.516276 13.993475 0.000000 0.000000 0.310484 0.000000 0.000000 -1.272272 -45.473904 -4.622856 4.235532 2.920019 55.304798 -4.549853 -0.828146 36.270096 1.833152 -4.969155 9.906216 -20.159807 46.624584 10.212953 15.324704 64.847626 -28.143484 -48.088673 52.395718 88.788483 -16.255163 7.914057 -27.671503 -63.405273 34.118172 33.966949 117.627907 36.299587 12.497990 -10.437662 3.752506 20.628639 -54.388500 -27.794382 -38.168800 112.102524 -41.823166 10.252730 -10.000841 -28.367773 -16.667412 
20.110023 6.909916 15.081765 121.002296 -0.002582 179.995438 18.161165 0.076982 -0.138208 18.258507 3.093152 -1.516316 13.993475 0.000000 0.000000 0.281175 0.000000 0.000000 -0.813264 -45.282352 -4.309141 3.822342 2.584161 55.287357 -4.318366 -0.811061 36.274574 1.696098 -4.966931 10.121148 -20.192940 46.652740 10.425989 15.539932 64.602768 -27.900215 -47.624474 52.039017 88.429466 -16.029013 7.880354 -27.687332 -63.227013 34.075699 34.048481 117.386597 36.233997 12.464818 -10.437662 3.752506 20.628639 -54.388500 -27.794382 -38.168800 112.102524 -41.823166 10.252730 -10.000841 -28.367773 -16.667412 
20.110023 6.909916 15.116609 121.002296 -0.002582 179.995438 18.161165 0.076982 -0.138208 18.008684 3.093173 -1.516356 13.993475 0.000000 0.000000 0.251866 0.000000 0.000000 -0.357443 -45.089119 -3.998770 3.409622 2.248403 55.272335 -4.086909 -0.793959 36.278980 1.559071 -4.964193 10.336041 -20.226233 46.680790 10.639138 15.750808 64.357590 -27.661287 -47.167786 51.680748 88.078148 -15.802893 7.846715 -27.703278 -63.048939 34.033020 34.129803 117.145546 36.168297 12.432021 -10.437662 3.752506 20.628639 -54.388500 -27.794382 -38.168800 112.102524 -41.823166 10.252731 -10.000841 -28.367773 -16.667412 
20.110023 6.909916 15.151452 121.002296 -0.002582 179.995438 18.161165 0.076982 -0.138208 17.758902 3.093195 -1.516397 13.993475 0.000000 0.000000 0.222558 0.000000 0.000000 0.095197 -44.894215 -3.691730 2.997364 1.912778 55.259754 -3.855484 -0.776843 36.283310 1.422077 -4.960944 10.550900 -20.259701 46.708778 10.852408 15.957444 64.112091 -27.426590 -46.718464 51.320972 87.734375 -15.576812 7.813144 -27.719360 -62.871033 33.990135 34.210926 116.904785 36.102497 12.399598 -10.437662 3.752506 20.628639 -54.388500 -27.794382 -38.168800 112.102524 -41.823162 10.252728 -10.000841 -28.367773 -16.667412 
20.110023 6.909916 15.186295 121.002296 -0.002582 179.995438 18.161165 0.076982 -0.138208 17.509155 3.093215 -1.516438 13.993475 0.000000 0.000000 0.193251 0.000000 0.000000 0.544665 -44.697685 -3.388018 2.585557 1.577319 55.249611 -3.624095 -0.759711 36.287579 1.285118 -4.957183 10.765714 -20.293331 46.736671 11.065789 16.159945 63.866253 -27.195990 -46.276279 50.959717 87.397896 -15.350774 7.779640 -27.735579 -62.693283 33.947037 34.291836 116.664307 36.036598 12.367548 -10.437662 3.752506 20.628639 -54.388500 -27.794382 -38.168800 112.102524 -41.823166 10.252730 -10.000841 -28.367773 -16.667412 
20.110023 6.909916 15.221138 121.002296 -0.002582 179.995438 18.161165 0.076982 -0.138208 17.259455 3.093236 -1.516479 13.993475 0.000000 0.000000 0.163944 0.000000 0.000000 0.990971 -44.499538 -3.087620 2.174187 1.242056 55.241856 -3.392741 -0.742565 36.291775 1.148197 -4.952912 10.980481 -20.327133 46.764481 11.279286 16.358435 63.620132 -26.969398 -45.841106 50.597057 87.068619 -15.124775 7.746205 -27.751917 -62.515705 33.903736 34.372543 116.424110 35.970600 12.335875 -10.437662 3.752506 20.628639 -54.388500 -27.794382 -38.168800 112.102524 -41.823166 10.252730 -10.000841 -28.367773 -16.667412 
